<svg xmlns="http://www.w3.org/2000/svg" viewBox="0 0 800 500"><defs></defs><rect width="800" height="500" fill="#c8d7dd"/><rect x="0" y="0" width="11" height="500" fill="#eef7fa" opacity=".42"/><rect x="22" y="0" width="11" height="500" fill="#eef7fa" opacity=".42"/><rect x="44" y="0" width="11" height="500" fill="#eef7fa" opacity=".42"/><rect x="66" y="0" width="11" height="500" fill="#eef7fa" opacity=".42"/><rect x="88" y="0" width="11" height="500" fill="#eef7fa" opacity=".42"/><rect x="110" y="0" width="11" height="500" fill="#eef7fa" opacity=".42"/><rect x="132" y="0" width="11" height="500" fill="#eef7fa" opacity=".42"/><rect x="154" y="0" width="11" height="500" fill="#eef7fa" opacity=".42"/><rect x="176" y="0" width="11" height="500" fill="#eef7fa" opacity=".42"/><rect x="198" y="0" width="11" height="500" fill="#eef7fa" opacity=".42"/><rect x="220" y="0" width="11" height="500" fill="#eef7fa" opacity=".42"/><rect x="242" y="0" width="11" height="500" fill="#eef7fa" opacity=".42"/><rect x="264" y="0" width="11" height="500" fill="#eef7fa" opacity=".42"/><rect x="286" y="0" width="11" height="500" fill="#eef7fa" opacity=".42"/><rect x="308" y="0" width="11" height="500" fill="#eef7fa" opacity=".42"/><rect x="330" y="0" width="11" height="500" fill="#eef7fa" opacity=".42"/><rect x="352" y="0" width="11" height="500" fill="#eef7fa" opacity=".42"/><rect x="374" y="0" width="11" height="500" fill="#eef7fa" opacity=".42"/><rect x="396" y="0" width="11" height="500" fill="#eef7fa" opacity=".42"/><rect x="418" y="0" width="11" height="500" fill="#eef7fa" opacity=".42"/><rect x="440" y="0" width="11" height="500" fill="#eef7fa" opacity=".42"/><rect x="462" y="0" width="11" height="500" fill="#eef7fa" opacity=".42"/><rect x="484" y="0" width="11" height="500" fill="#eef7fa" opacity=".42"/><rect x="506" y="0" width="11" height="500" fill="#eef7fa" opacity=".42"/><rect x="528" y="0" width="11" height="500" fill="#eef7fa" opacity=".42"/><rect x="550" y="0" width="11" height="500" fill="#eef7fa" opacity=".42"/><rect x="572" y="0" width="11" height="500" fill="#eef7fa" opacity=".42"/><rect x="594" y="0" width="11" height="500" fill="#eef7fa" opacity=".42"/><rect x="616" y="0" width="11" height="500" fill="#eef7fa" opacity=".42"/><rect x="638" y="0" width="11" height="500" fill="#eef7fa" opacity=".42"/><rect x="660" y="0" width="11" height="500" fill="#eef7fa" opacity=".42"/><rect x="682" y="0" width="11" height="500" fill="#eef7fa" opacity=".42"/><rect x="704" y="0" width="11" height="500" fill="#eef7fa" opacity=".42"/><rect x="726" y="0" width="11" height="500" fill="#eef7fa" opacity=".42"/><rect x="748" y="0" width="11" height="500" fill="#eef7fa" opacity=".42"/><rect x="770" y="0" width="11" height="500" fill="#eef7fa" opacity=".42"/><rect x="792" y="0" width="11" height="500" fill="#eef7fa" opacity=".42"/><rect x="8" y="8" width="784" height="484" rx="26" fill="none" stroke="#ffffff" stroke-opacity=".28" stroke-width="8"/></svg>